<svg xmlns="http://www.w3.org/2000/svg" viewBox="0 0 80 64">
  <title>海老名サービスエリア</title>
  <style>
    .art-line,.art-ground{fill:none;stroke:#183252;stroke-width:2.1;stroke-linecap:round;stroke-linejoin:round}.art-ground{stroke:#748881;stroke-width:1.7;stroke-dasharray:2 2}.art-shadow{fill:none;stroke:rgba(24,50,82,.16);stroke-width:5;stroke-linecap:round}.art-paper{fill:#fffdf7;stroke:#183252;stroke-width:1.8;stroke-linejoin:round}.art-navy{fill:#183252;stroke:#183252;stroke-width:1.2;stroke-linejoin:round}.art-blue{fill:#8dbad0;stroke:#183252;stroke-width:1.25}.art-orange{fill:#cf6045;stroke:#183252;stroke-width:1.25;stroke-linejoin:round}.art-green{fill:#a9c7a5;stroke:#183252;stroke-width:1.25;stroke-linejoin:round}
  </style>
  <path class="art-shadow" d="M9 58c15 3 47 3 62 0"/>
  <path class="art-ground" d="M8 55c18-3 47-3 64 0"/>
  <path class="art-paper" d="M15 49V27h50v22z"/>
  <path class="art-orange" d="M10 28l8-11h44l8 11z"/>
  <path class="art-line" d="M15 28h50v21H15M22 49V35h15v14m7-14h14M44 41h14M12 53h56"/>
  <path class="art-navy" d="M27 21h26v9H27z"/>
  <path class="art-paper" d="M31 23h18v5H31z"/>
  <path class="art-line" d="M8 58c9-6 17-6 26 0m12 0c9-6 17-6 26 0"/>
</svg>
