<svg xmlns="http://www.w3.org/2000/svg" viewBox="0 0 80 64">
  <title>海老名駅</title>
  <style>
    .art-line,.art-ground{fill:none;stroke:#183252;stroke-width:2.1;stroke-linecap:round;stroke-linejoin:round}.art-ground{stroke:#748881;stroke-width:1.7;stroke-dasharray:2 2}.art-shadow{fill:none;stroke:rgba(24,50,82,.16);stroke-width:5;stroke-linecap:round}.art-paper{fill:#fffdf7;stroke:#183252;stroke-width:1.8;stroke-linejoin:round}.art-navy{fill:#183252;stroke:#183252;stroke-width:1.2;stroke-linejoin:round}.art-blue{fill:#8dbad0;stroke:#183252;stroke-width:1.25}.art-orange{fill:#cf6045;stroke:#183252;stroke-width:1.25;stroke-linejoin:round}.art-green{fill:#a9c7a5;stroke:#183252;stroke-width:1.25;stroke-linejoin:round}
  </style>
  <path class="art-shadow" d="M9 58c15 3 47 3 62 0"/>
  <path class="art-ground" d="M8 55c15-3 47-3 64 0"/>
  <path class="art-paper" d="M13 46V25l13-8 13 8v21m0 0V22l13-7 15 8v23"/>
  <path class="art-navy" d="M10 25l16-11 16 11-3 4-13-8-13 8zm27-3 15-10 18 10-3 4-15-8-12 8z"/>
  <path class="art-line" d="M20 46V31h12v15m15 0V29h13v17M8 49h64M16 54h48"/>
  <rect class="art-blue" x="22" y="33" width="8" height="6" rx="1"/>
  <rect class="art-orange" x="49" y="31" width="9" height="6" rx="1"/>
  <path class="art-line" d="M25 51v5m29-5v5"/>
</svg>
