<svg xmlns="http://www.w3.org/2000/svg" viewBox="0 0 80 64">
  <title>門沢橋駅</title>
  <style>
    .art-line,.art-ground{fill:none;stroke:#183252;stroke-width:2.1;stroke-linecap:round;stroke-linejoin:round}.art-ground{stroke:#748881;stroke-width:1.7;stroke-dasharray:2 2}.art-shadow{fill:none;stroke:rgba(24,50,82,.16);stroke-width:5;stroke-linecap:round}.art-paper{fill:#fffdf7;stroke:#183252;stroke-width:1.8;stroke-linejoin:round}.art-navy{fill:#183252;stroke:#183252;stroke-width:1.2;stroke-linejoin:round}.art-blue{fill:#8dbad0;stroke:#183252;stroke-width:1.25}.art-orange{fill:#cf6045;stroke:#183252;stroke-width:1.25;stroke-linejoin:round}.art-green{fill:#a9c7a5;stroke:#183252;stroke-width:1.25;stroke-linejoin:round}
  </style>
  <path class="art-shadow" d="M9 58c15 3 47 3 62 0"/>
  <path class="art-blue" d="M7 47h66v11H7z"/>
  <path class="art-paper" d="M13 45c4-16 14-16 18 0 4-16 14-16 18 0 4-16 14-16 18 0z"/>
  <path class="art-line" d="M8 45h64M13 45c4-16 14-16 18 0 4-16 14-16 18 0 4-16 14-16 18 0M7 53h66"/>
  <path class="art-navy" d="M21 19h38v13H21z"/>
  <rect class="art-paper" x="25" y="22" width="9" height="6" rx="1"/>
  <rect class="art-paper" x="38" y="22" width="9" height="6" rx="1"/>
  <rect class="art-paper" x="51" y="22" width="5" height="6" rx="1"/>
  <path class="art-line" d="M18 34h44m-36 0-4 5m32-5 4 5"/>
</svg>
