<svg xmlns="http://www.w3.org/2000/svg" viewBox="0 0 80 64">
  <title>県立相模三川公園</title>
  <style>
    .art-line,.art-ground{fill:none;stroke:#183252;stroke-width:2.1;stroke-linecap:round;stroke-linejoin:round}.art-ground{stroke:#748881;stroke-width:1.7;stroke-dasharray:2 2}.art-shadow{fill:none;stroke:rgba(24,50,82,.16);stroke-width:5;stroke-linecap:round}.art-paper{fill:#fffdf7;stroke:#183252;stroke-width:1.8;stroke-linejoin:round}.art-navy{fill:#183252;stroke:#183252;stroke-width:1.2;stroke-linejoin:round}.art-blue{fill:#8dbad0;stroke:#183252;stroke-width:1.25}.art-orange{fill:#cf6045;stroke:#183252;stroke-width:1.25;stroke-linejoin:round}.art-green{fill:#a9c7a5;stroke:#183252;stroke-width:1.25;stroke-linejoin:round}
  </style>
  <path class="art-shadow" d="M9 58c15 3 47 3 62 0"/>
  <path class="art-blue" d="M7 49c8-5 14 5 22 0s14 5 22 0 14 5 22 0v9H7z"/>
  <path class="art-green" d="M10 39c5-13 12-13 17 0zm43 1c5-15 13-15 18 0z"/>
  <path class="art-paper" d="M24 38h34l-4 7H28z"/>
  <path class="art-line" d="M18 55c8-5 14 5 22 0s14 5 22 0M24 38h34M28 38c4-12 22-12 26 0M31 38v7m20-7v7M16 39v15m46-14v13"/>
  <circle class="art-orange" cx="40" cy="17" r="5"/>
  <path class="art-line" d="M40 22V9m0 3 5-4"/>
</svg>
